STARTFONT 2.1
FONT iso01a-8x8.psf
SIZE 8 72 72
FONTBOUNDINGBOX 8 8 0 -1
COMMENT "Generated by fontforge, http://fontforge.sourceforge.net"
COMMENT "Font converted from PSF to BDF."
STARTPROPERTIES 9
POINT_SIZE 80
PIXEL_SIZE 8
RESOLUTION_X 72
RESOLUTION_Y 72
FONT_ASCENT 7
FONT_DESCENT 1
AVERAGE_WIDTH 0
SPACING "C"
_XMBDFED_INFO "Edited with xmbdfed 4.3."
ENDPROPERTIES
CHARS 318
STARTCHAR uni0000
ENCODING 0
SWIDTH 1000 0
DWIDTH 8 0
BBX 1 1 7 -1
BITMAP
00
ENDCHAR
STARTCHAR uni0001
ENCODING 1
SWIDTH 1000 0
DWIDTH 8 0
BBX 8 8 0 -1
BITMAP
7E
81
A5
81
BD
99
81
7E
ENDCHAR
STARTCHAR uni0002
ENCODING 2
SWIDTH 1000 0
DWIDTH 8 0
BBX 8 8 0 -1
BITMAP
7E
FF
DB
FF
C3
E7
FF
7E
ENDCHAR
STARTCHAR uni0003
ENCODING 3
SWIDTH 1000 0
DWIDTH 8 0
BBX 7 7 0 0
BITMAP
6C
FE
FE
FE
7C
38
10
ENDCHAR
STARTCHAR uni0004
ENCODING 4
SWIDTH 1000 0
DWIDTH 8 0
BBX 7 7 0 0
BITMAP
10
38
7C
FE
7C
38
10
ENDCHAR
STARTCHAR uni0005
ENCODING 5
SWIDTH 1000 0
DWIDTH 8 0
BBX 7 8 0 -1
BITMAP
38
7C
38
FE
FE
7C
38
7C
ENDCHAR
STARTCHAR uni0006
ENCODING 6
SWIDTH 1000 0
DWIDTH 8 0
BBX 7 8 0 -1
BITMAP
10
10
38
7C
FE
7C
38
7C
ENDCHAR
STARTCHAR uni0007
ENCODING 7
SWIDTH 1000 0
DWIDTH 8 0
BBX 4 4 2 1
BITMAP
60
F0
F0
60
ENDCHAR
STARTCHAR uni0008
ENCODING 8
SWIDTH 1000 0
DWIDTH 8 0
BBX 8 8 0 -1
BITMAP
FF
FF
E7
C3
C3
E7
FF
FF
ENDCHAR
STARTCHAR uni0009
ENCODING 9
SWIDTH 1000 0
DWIDTH 8 0
BBX 6 6 1 0
BITMAP
78
CC
84
84
CC
78
ENDCHAR
STARTCHAR uni000A
ENCODING 10
SWIDTH 1000 0
DWIDTH 8 0
BBX 8 8 0 -1
BITMAP
FF
C3
99
BD
BD
99
C3
FF
ENDCHAR
STARTCHAR uni000B
ENCODING 11
SWIDTH 1000 0
DWIDTH 8 0
BBX 8 8 0 -1
BITMAP
0F
07
0F
7D
CC
CC
CC
78
ENDCHAR
STARTCHAR uni000C
ENCODING 12
SWIDTH 1000 0
DWIDTH 8 0
BBX 6 8 1 -1
BITMAP
78
CC
CC
CC
78
30
FC
30
ENDCHAR
STARTCHAR uni000D
ENCODING 13
SWIDTH 1000 0
DWIDTH 8 0
BBX 8 8 0 -1
BITMAP
3F
33
3F
30
30
70
F0
E0
ENDCHAR
STARTCHAR uni000E
ENCODING 14
SWIDTH 1000 0
DWIDTH 8 0
BBX 8 8 0 -1
BITMAP
7F
63
7F
63
63
67
E6
C0
ENDCHAR
STARTCHAR uni000F
ENCODING 15
SWIDTH 1000 0
DWIDTH 8 0
BBX 8 8 0 -1
BITMAP
99
5A
3C
E7
E7
3C
5A
99
ENDCHAR
STARTCHAR uni0010
ENCODING 16
SWIDTH 1000 0
DWIDTH 8 0
BBX 7 7 0 0
BITMAP
80
E0
F8
FE
F8
E0
80
ENDCHAR
STARTCHAR uni0011
ENCODING 17
SWIDTH 1000 0
DWIDTH 8 0
BBX 7 7 0 0
BITMAP
02
0E
3E
FE
3E
0E
02
ENDCHAR
STARTCHAR uni0012
ENCODING 18
SWIDTH 1000 0
DWIDTH 8 0
BBX 6 8 1 -1
BITMAP
30
78
FC
30
30
FC
78
30
ENDCHAR
STARTCHAR uni0013
ENCODING 19
SWIDTH 1000 0
DWIDTH 8 0
BBX 6 7 1 0
BITMAP
CC
CC
CC
CC
CC
00
CC
ENDCHAR
STARTCHAR uni0014
ENCODING 20
SWIDTH 1000 0
DWIDTH 8 0
BBX 8 7 0 0
BITMAP
7F
DB
DB
7B
1B
1B
1B
ENDCHAR
STARTCHAR uni0015
ENCODING 21
SWIDTH 1000 0
DWIDTH 8 0
BBX 8 8 0 -1
BITMAP
3E
63
38
6C
6C
38
CC
78
ENDCHAR
STARTCHAR uni0016
ENCODING 22
SWIDTH 1000 0
DWIDTH 8 0
BBX 6 3 1 0
BITMAP
FC
FC
FC
ENDCHAR
STARTCHAR uni0017
ENCODING 23
SWIDTH 1000 0
DWIDTH 8 0
BBX 8 8 0 -1
BITMAP
18
3C
7E
18
7E
3C
18
FF
ENDCHAR
STARTCHAR uni0018
ENCODING 24
SWIDTH 1000 0
DWIDTH 8 0
BBX 6 7 1 0
BITMAP
30
78
FC
30
30
30
30
ENDCHAR
STARTCHAR uni0019
ENCODING 25
SWIDTH 1000 0
DWIDTH 8 0
BBX 6 7 1 0
BITMAP
30
30
30
30
FC
78
30
ENDCHAR
STARTCHAR uni001A
ENCODING 26
SWIDTH 1000 0
DWIDTH 8 0
BBX 7 5 0 1
BITMAP
18
0C
FE
0C
18
ENDCHAR
STARTCHAR uni001B
ENCODING 27
SWIDTH 1000 0
DWIDTH 8 0
BBX 7 5 0 1
BITMAP
30
60
FE
60
30
ENDCHAR
STARTCHAR uni001C
ENCODING 28
SWIDTH 1000 0
DWIDTH 8 0
BBX 7 4 0 1
BITMAP
C0
C0
C0
FE
ENDCHAR
STARTCHAR uni001D
ENCODING 29
SWIDTH 1000 0
DWIDTH 8 0
BBX 8 5 0 1
BITMAP
24
66
FF
66
24
ENDCHAR
STARTCHAR uni001E
ENCODING 30
SWIDTH 1000 0
DWIDTH 8 0
BBX 8 5 0 1
BITMAP
18
3C
7E
FF
FF
ENDCHAR
STARTCHAR uni001F
ENCODING 31
SWIDTH 1000 0
DWIDTH 8 0
BBX 8 5 0 1
BITMAP
FF
FF
7E
3C
18
ENDCHAR
STARTCHAR space
ENCODING 32
SWIDTH 1000 0
DWIDTH 8 0
BBX 1 1 7 -1
BITMAP
00
ENDCHAR
STARTCHAR exclam
ENCODING 33
SWIDTH 1000 0
DWIDTH 8 0
BBX 4 7 1 0
BITMAP
60
F0
F0
60
60
00
60
ENDCHAR
STARTCHAR quotedbl
ENCODING 34
SWIDTH 1000 0
DWIDTH 8 0
BBX 5 3 1 4
BITMAP
D8
D8
D8
ENDCHAR
STARTCHAR numbersign
ENCODING 35
SWIDTH 1000 0
DWIDTH 8 0
BBX 7 7 0 0
BITMAP
6C
6C
FE
6C
FE
6C
6C
ENDCHAR
STARTCHAR dollar
ENCODING 36
SWIDTH 1000 0
DWIDTH 8 0
BBX 6 7 0 0
BITMAP
30
7C
C0
78
0C
F8
30
ENDCHAR
STARTCHAR percent
ENCODING 37
SWIDTH 1000 0
DWIDTH 8 0
BBX 7 6 0 0
BITMAP
C6
CC
18
30
66
C6
ENDCHAR
STARTCHAR ampersand
ENCODING 38
SWIDTH 1000 0
DWIDTH 8 0
BBX 7 7 0 0
BITMAP
38
6C
38
76
DC
CC
76
ENDCHAR
STARTCHAR quotesingle
ENCODING 39
SWIDTH 1000 0
DWIDTH 8 0
BBX 3 3 0 4
BITMAP
60
60
C0
ENDCHAR
STARTCHAR parenleft
ENCODING 40
SWIDTH 1000 0
DWIDTH 8 0
BBX 4 7 1 0
BITMAP
30
60
C0
C0
C0
60
30
ENDCHAR
STARTCHAR parenright
ENCODING 41
SWIDTH 1000 0
DWIDTH 8 0
BBX 4 7 1 0
BITMAP
C0
60
30
30
30
60
C0
ENDCHAR
STARTCHAR asterisk
ENCODING 42
SWIDTH 1000 0
DWIDTH 8 0
BBX 8 5 0 1
BITMAP
66
3C
FF
3C
66
ENDCHAR
STARTCHAR plus
ENCODING 43
SWIDTH 1000 0
DWIDTH 8 0
BBX 6 5 0 1
BITMAP
30
30
FC
30
30
ENDCHAR
STARTCHAR comma
ENCODING 44
SWIDTH 1000 0
DWIDTH 8 0
BBX 3 3 1 -1
BITMAP
60
60
C0
ENDCHAR
STARTCHAR hyphen
ENCODING 45
SWIDTH 1000 0
DWIDTH 8 0
BBX 6 1 0 3
BITMAP
FC
ENDCHAR
STARTCHAR period
ENCODING 46
SWIDTH 1000 0
DWIDTH 8 0
BBX 2 2 2 0
BITMAP
C0
C0
ENDCHAR
STARTCHAR slash
ENCODING 47
SWIDTH 1000 0
DWIDTH 8 0
BBX 7 7 0 0
BITMAP
06
0C
18
30
60
C0
80
ENDCHAR
STARTCHAR zero
ENCODING 48
SWIDTH 1000 0
DWIDTH 8 0
BBX 7 7 0 0
BITMAP
7C
C6
CE
DE
F6
E6
7C
ENDCHAR
STARTCHAR one
ENCODING 49
SWIDTH 1000 0
DWIDTH 8 0
BBX 6 7 0 0
BITMAP
30
70
30
30
30
30
FC
ENDCHAR
STARTCHAR two
ENCODING 50
SWIDTH 1000 0
DWIDTH 8 0
BBX 6 7 0 0
BITMAP
78
CC
0C
38
60
CC
FC
ENDCHAR
STARTCHAR three
ENCODING 51
SWIDTH 1000 0
DWIDTH 8 0
BBX 6 7 0 0
BITMAP
78
CC
0C
38
0C
CC
78
ENDCHAR
STARTCHAR four
ENCODING 52
SWIDTH 1000 0
DWIDTH 8 0
BBX 7 7 0 0
BITMAP
1C
3C
6C
CC
FE
0C
1E
ENDCHAR
STARTCHAR five
ENCODING 53
SWIDTH 1000 0
DWIDTH 8 0
BBX 6 7 0 0
BITMAP
FC
C0
F8
0C
0C
CC
78
ENDCHAR
STARTCHAR six
ENCODING 54
SWIDTH 1000 0
DWIDTH 8 0
BBX 6 7 0 0
BITMAP
38
60
C0
F8
CC
CC
78
ENDCHAR
STARTCHAR seven
ENCODING 55
SWIDTH 1000 0
DWIDTH 8 0
BBX 6 7 0 0
BITMAP
FC
CC
0C
18
30
30
30
ENDCHAR
STARTCHAR eight
ENCODING 56
SWIDTH 1000 0
DWIDTH 8 0
BBX 6 7 0 0
BITMAP
78
CC
CC
78
CC
CC
78
ENDCHAR
STARTCHAR nine
ENCODING 57
SWIDTH 1000 0
DWIDTH 8 0
BBX 6 7 0 0
BITMAP
78
CC
CC
7C
0C
18
70
ENDCHAR
STARTCHAR colon
ENCODING 58
SWIDTH 1000 0
DWIDTH 8 0
BBX 2 6 2 0
BITMAP
C0
C0
00
00
C0
C0
ENDCHAR
STARTCHAR semicolon
ENCODING 59
SWIDTH 1000 0
DWIDTH 8 0
BBX 3 7 1 -1
BITMAP
60
60
00
00
60
60
C0
ENDCHAR
STARTCHAR less
ENCODING 60
SWIDTH 1000 0
DWIDTH 8 0
BBX 5 7 0 0
BITMAP
18
30
60
C0
60
30
18
ENDCHAR
STARTCHAR equal
ENCODING 61
SWIDTH 1000 0
DWIDTH 8 0
BBX 6 4 0 1
BITMAP
FC
00
00
FC
ENDCHAR
STARTCHAR greater
ENCODING 62
SWIDTH 1000 0
DWIDTH 8 0
BBX 5 7 1 0
BITMAP
C0
60
30
18
30
60
C0
ENDCHAR
STARTCHAR question
ENCODING 63
SWIDTH 1000 0
DWIDTH 8 0
BBX 6 7 0 0
BITMAP
78
CC
0C
18
30
00
30
ENDCHAR
STARTCHAR at
ENCODING 64
SWIDTH 1000 0
DWIDTH 8 0
BBX 7 7 0 0
BITMAP
7C
C6
DE
DE
DE
C0
78
ENDCHAR
STARTCHAR A
ENCODING 65
SWIDTH 1000 0
DWIDTH 8 0
BBX 6 7 0 0
BITMAP
30
78
CC
CC
FC
CC
CC
ENDCHAR
STARTCHAR B
ENCODING 66
SWIDTH 1000 0
DWIDTH 8 0
BBX 7 7 0 0
BITMAP
FC
66
66
7C
66
66
FC
ENDCHAR
STARTCHAR C
ENCODING 67
SWIDTH 1000 0
DWIDTH 8 0
BBX 7 7 0 0
BITMAP
3C
66
C0
C0
C0
66
3C
ENDCHAR
STARTCHAR D
ENCODING 68
SWIDTH 1000 0
DWIDTH 8 0
BBX 7 7 0 0
BITMAP
F8
6C
66
66
66
6C
F8
ENDCHAR
STARTCHAR E
ENCODING 69
SWIDTH 1000 0
DWIDTH 8 0
BBX 7 7 0 0
BITMAP
FE
62
68
78
68
62
FE
ENDCHAR
STARTCHAR F
ENCODING 70
SWIDTH 1000 0
DWIDTH 8 0
BBX 7 7 0 0
BITMAP
FE
62
68
78
68
60
F0
ENDCHAR
STARTCHAR G
ENCODING 71
SWIDTH 1000 0
DWIDTH 8 0
BBX 7 7 0 0
BITMAP
3C
66
C0
C0
CE
66
3E
ENDCHAR
STARTCHAR H
ENCODING 72
SWIDTH 1000 0
DWIDTH 8 0
BBX 6 7 0 0
BITMAP
CC
CC
CC
FC
CC
CC
CC
ENDCHAR
STARTCHAR I
ENCODING 73
SWIDTH 1000 0
DWIDTH 8 0
BBX 4 7 1 0
BITMAP
F0
60
60
60
60
60
F0
ENDCHAR
STARTCHAR J
ENCODING 74
SWIDTH 1000 0
DWIDTH 8 0
BBX 7 7 0 0
BITMAP
1E
0C
0C
0C
CC
CC
78
ENDCHAR
STARTCHAR K
ENCODING 75
SWIDTH 1000 0
DWIDTH 8 0
BBX 7 7 0 0
BITMAP
E6
66
6C
78
6C
66
E6
ENDCHAR
STARTCHAR L
ENCODING 76
SWIDTH 1000 0
DWIDTH 8 0
BBX 7 7 0 0
BITMAP
F0
60
60
60
62
66
FE
ENDCHAR
STARTCHAR M
ENCODING 77
SWIDTH 1000 0
DWIDTH 8 0
BBX 7 7 0 0
BITMAP
C6
EE
FE
FE
D6
C6
C6
ENDCHAR
STARTCHAR N
ENCODING 78
SWIDTH 1000 0
DWIDTH 8 0
BBX 7 7 0 0
BITMAP
C6
E6
F6
DE
CE
C6
C6
ENDCHAR
STARTCHAR O
ENCODING 79
SWIDTH 1000 0
DWIDTH 8 0
BBX 7 7 0 0
BITMAP
38
6C
C6
C6
C6
6C
38
ENDCHAR
STARTCHAR P
ENCODING 80
SWIDTH 1000 0
DWIDTH 8 0
BBX 7 7 0 0
BITMAP
FC
66
66
7C
60
60
F0
ENDCHAR
STARTCHAR Q
ENCODING 81
SWIDTH 1000 0
DWIDTH 8 0
BBX 6 7 0 0
BITMAP
78
CC
CC
CC
DC
78
1C
ENDCHAR
STARTCHAR R
ENCODING 82
SWIDTH 1000 0
DWIDTH 8 0
BBX 7 7 0 0
BITMAP
FC
66
66
7C
6C
66
E6
ENDCHAR
STARTCHAR S
ENCODING 83
SWIDTH 1000 0
DWIDTH 8 0
BBX 6 7 0 0
BITMAP
78
CC
E0
70
1C
CC
78
ENDCHAR
STARTCHAR T
ENCODING 84
SWIDTH 1000 0
DWIDTH 8 0
BBX 6 7 0 0
BITMAP
FC
B4
30
30
30
30
78
ENDCHAR
STARTCHAR U
ENCODING 85
SWIDTH 1000 0
DWIDTH 8 0
BBX 6 7 0 0
BITMAP
CC
CC
CC
CC
CC
CC
FC
ENDCHAR
STARTCHAR V
ENCODING 86
SWIDTH 1000 0
DWIDTH 8 0
BBX 6 7 0 0
BITMAP
CC
CC
CC
CC
CC
78
30
ENDCHAR
STARTCHAR W
ENCODING 87
SWIDTH 1000 0
DWIDTH 8 0
BBX 7 7 0 0
BITMAP
C6
C6
C6
D6
FE
EE
C6
ENDCHAR
STARTCHAR X
ENCODING 88
SWIDTH 1000 0
DWIDTH 8 0
BBX 7 7 0 0
BITMAP
C6
C6
6C
38
38
6C
C6
ENDCHAR
STARTCHAR Y
ENCODING 89
SWIDTH 1000 0
DWIDTH 8 0
BBX 6 7 0 0
BITMAP
CC
CC
CC
78
30
30
78
ENDCHAR
STARTCHAR Z
ENCODING 90
SWIDTH 1000 0
DWIDTH 8 0
BBX 7 7 0 0
BITMAP
FE
C6
8C
18
32
66
FE
ENDCHAR
STARTCHAR bracketleft
ENCODING 91
SWIDTH 1000 0
DWIDTH 8 0
BBX 4 7 1 0
BITMAP
F0
C0
C0
C0
C0
C0
F0
ENDCHAR
STARTCHAR backslash
ENCODING 92
SWIDTH 1000 0
DWIDTH 8 0
BBX 7 7 0 0
BITMAP
C0
60
30
18
0C
06
02
ENDCHAR
STARTCHAR bracketright
ENCODING 93
SWIDTH 1000 0
DWIDTH 8 0
BBX 4 7 1 0
BITMAP
F0
30
30
30
30
30
F0
ENDCHAR
STARTCHAR asciicircum
ENCODING 94
SWIDTH 1000 0
DWIDTH 8 0
BBX 7 4 0 3
BITMAP
10
38
6C
C6
ENDCHAR
STARTCHAR underscore
ENCODING 95
SWIDTH 1000 0
DWIDTH 8 0
BBX 8 1 0 -1
BITMAP
FF
ENDCHAR
STARTCHAR grave
ENCODING 96
SWIDTH 1000 0
DWIDTH 8 0
BBX 3 3 2 4
BITMAP
C0
C0
60
ENDCHAR
STARTCHAR a
ENCODING 97
SWIDTH 1000 0
DWIDTH 8 0
BBX 7 5 0 0
BITMAP
78
0C
7C
CC
76
ENDCHAR
STARTCHAR b
ENCODING 98
SWIDTH 1000 0
DWIDTH 8 0
BBX 7 7 0 0
BITMAP
E0
60
60
7C
66
66
DC
ENDCHAR
STARTCHAR c
ENCODING 99
SWIDTH 1000 0
DWIDTH 8 0
BBX 6 5 0 0
BITMAP
78
CC
C0
CC
78
ENDCHAR
STARTCHAR d
ENCODING 100
SWIDTH 1000 0
DWIDTH 8 0
BBX 7 7 0 0
BITMAP
1C
0C
0C
7C
CC
CC
76
ENDCHAR
STARTCHAR e
ENCODING 101
SWIDTH 1000 0
DWIDTH 8 0
BBX 6 5 0 0
BITMAP
78
CC
FC
C0
78
ENDCHAR
STARTCHAR f
ENCODING 102
SWIDTH 1000 0
DWIDTH 8 0
BBX 6 7 0 0
BITMAP
38
6C
60
F0
60
60
F0
ENDCHAR
STARTCHAR g
ENCODING 103
SWIDTH 1000 0
DWIDTH 8 0
BBX 7 6 0 -1
BITMAP
76
CC
CC
7C
0C
F8
ENDCHAR
STARTCHAR h
ENCODING 104
SWIDTH 1000 0
DWIDTH 8 0
BBX 7 7 0 0
BITMAP
E0
60
6C
76
66
66
E6
ENDCHAR
STARTCHAR i
ENCODING 105
SWIDTH 1000 0
DWIDTH 8 0
BBX 4 7 1 0
BITMAP
60
00
E0
60
60
60
F0
ENDCHAR
STARTCHAR j
ENCODING 106
SWIDTH 1000 0
DWIDTH 8 0
BBX 6 8 0 -1
BITMAP
0C
00
0C
0C
0C
CC
CC
78
ENDCHAR
STARTCHAR k
ENCODING 107
SWIDTH 1000 0
DWIDTH 8 0
BBX 7 7 0 0
BITMAP
E0
60
66
6C
78
6C
E6
ENDCHAR
STARTCHAR l
ENCODING 108
SWIDTH 1000 0
DWIDTH 8 0
BBX 4 7 1 0
BITMAP
E0
60
60
60
60
60
F0
ENDCHAR
STARTCHAR m
ENCODING 109
SWIDTH 1000 0
DWIDTH 8 0
BBX 7 5 0 0
BITMAP
CC
FE
FE
D6
C6
ENDCHAR
STARTCHAR n
ENCODING 110
SWIDTH 1000 0
DWIDTH 8 0
BBX 6 5 0 0
BITMAP
F8
CC
CC
CC
CC
ENDCHAR
STARTCHAR o
ENCODING 111
SWIDTH 1000 0
DWIDTH 8 0
BBX 6 5 0 0
BITMAP
78
CC
CC
CC
78
ENDCHAR
STARTCHAR p
ENCODING 112
SWIDTH 1000 0
DWIDTH 8 0
BBX 7 6 0 -1
BITMAP
DC
66
66
7C
60
F0
ENDCHAR
STARTCHAR q
ENCODING 113
SWIDTH 1000 0
DWIDTH 8 0
BBX 7 6 0 -1
BITMAP
76
CC
CC
7C
0C
1E
ENDCHAR
STARTCHAR r
ENCODING 114
SWIDTH 1000 0
DWIDTH 8 0
BBX 7 5 0 0
BITMAP
DC
76
66
60
F0
ENDCHAR
STARTCHAR s
ENCODING 115
SWIDTH 1000 0
DWIDTH 8 0
BBX 6 5 0 0
BITMAP
7C
C0
78
0C
F8
ENDCHAR
STARTCHAR t
ENCODING 116
SWIDTH 1000 0
DWIDTH 8 0
BBX 5 7 1 0
BITMAP
20
60
F8
60
60
68
30
ENDCHAR
STARTCHAR u
ENCODING 117
SWIDTH 1000 0
DWIDTH 8 0
BBX 7 5 0 0
BITMAP
CC
CC
CC
CC
76
ENDCHAR
STARTCHAR v
ENCODING 118
SWIDTH 1000 0
DWIDTH 8 0
BBX 6 5 0 0
BITMAP
CC
CC
CC
78
30
ENDCHAR
STARTCHAR w
ENCODING 119
SWIDTH 1000 0
DWIDTH 8 0
BBX 7 5 0 0
BITMAP
C6
D6
FE
FE
6C
ENDCHAR
STARTCHAR x
ENCODING 120
SWIDTH 1000 0
DWIDTH 8 0
BBX 7 5 0 0
BITMAP
C6
6C
38
6C
C6
ENDCHAR
STARTCHAR y
ENCODING 121
SWIDTH 1000 0
DWIDTH 8 0
BBX 6 6 0 -1
BITMAP
CC
CC
CC
7C
0C
F8
ENDCHAR
STARTCHAR z
ENCODING 122
SWIDTH 1000 0
DWIDTH 8 0
BBX 6 5 0 0
BITMAP
FC
98
30
64
FC
ENDCHAR
STARTCHAR braceleft
ENCODING 123
SWIDTH 1000 0
DWIDTH 8 0
BBX 6 7 0 0
BITMAP
1C
30
30
E0
30
30
1C
ENDCHAR
STARTCHAR bar
ENCODING 124
SWIDTH 1000 0
DWIDTH 8 0
BBX 2 7 3 0
BITMAP
C0
C0
C0
00
C0
C0
C0
ENDCHAR
STARTCHAR braceright
ENCODING 125
SWIDTH 1000 0
DWIDTH 8 0
BBX 6 7 0 0
BITMAP
E0
30
30
1C
30
30
E0
ENDCHAR
STARTCHAR asciitilde
ENCODING 126
SWIDTH 1000 0
DWIDTH 8 0
BBX 7 2 0 5
BITMAP
76
DC
ENDCHAR
STARTCHAR uni007F
ENCODING 127
SWIDTH 1000 0
DWIDTH 8 0
BBX 7 6 0 0
BITMAP
10
38
6C
C6
C6
FE
ENDCHAR
STARTCHAR uni009A
ENCODING 154
SWIDTH 1000 0
DWIDTH 0 0
BBX 1 1 7 -1
BITMAP
00
ENDCHAR
STARTCHAR uni009F
ENCODING 159
SWIDTH 1000 0
DWIDTH 0 0
BBX 6 5 1 0
BITMAP
30
00
FC
00
30
ENDCHAR
STARTCHAR uni00A0
ENCODING 160
SWIDTH 1000 0
DWIDTH 8 0
BBX 1 1 0 0
BITMAP
00
ENDCHAR
STARTCHAR exclamdown
ENCODING 161
SWIDTH 1000 0
DWIDTH 0 0
BBX 4 7 1 0
BITMAP
60
00
60
60
F0
F0
60
ENDCHAR
STARTCHAR cent
ENCODING 162
SWIDTH 1000 0
DWIDTH 0 0
BBX 6 6 0 -1
BITMAP
10
7C
C0
C0
7C
10
ENDCHAR
STARTCHAR sterling
ENCODING 163
SWIDTH 1000 0
DWIDTH 0 0
BBX 6 6 0 0
BITMAP
38
60
60
F0
60
FC
ENDCHAR
STARTCHAR currency
ENCODING 164
SWIDTH 1000 0
DWIDTH 0 0
BBX 8 6 0 0
BITMAP
C3
3C
66
66
3C
C3
ENDCHAR
STARTCHAR yen
ENCODING 165
SWIDTH 1000 0
DWIDTH 0 0
BBX 6 6 0 0
BITMAP
CC
CC
78
30
FC
30
ENDCHAR
STARTCHAR brokenbar
ENCODING 166
SWIDTH 1000 0
DWIDTH 0 0
BBX 2 7 3 0
BITMAP
C0
C0
C0
00
C0
C0
C0
ENDCHAR
STARTCHAR section
ENCODING 167
SWIDTH 1000 0
DWIDTH 0 0
BBX 7 7 0 0
BITMAP
7E
C0
7C
C6
7C
06
FC
ENDCHAR
STARTCHAR dieresis
ENCODING 168
SWIDTH 1000 0
DWIDTH 0 0
BBX 7 1 0 6
BITMAP
C6
ENDCHAR
STARTCHAR copyright
ENCODING 169
SWIDTH 1000 0
DWIDTH 0 0
BBX 7 7 0 0
BITMAP
7C
82
BA
A2
BA
82
7C
ENDCHAR
STARTCHAR ordfeminine
ENCODING 170
SWIDTH 1000 0
DWIDTH 0 0
BBX 6 6 2 1
BITMAP
70
18
78
88
7C
FC
ENDCHAR
STARTCHAR guillemotleft
ENCODING 171
SWIDTH 1000 0
DWIDTH 0 0
BBX 8 5 0 1
BITMAP
33
66
CC
66
33
ENDCHAR
STARTCHAR logicalnot
ENCODING 172
SWIDTH 1000 0
DWIDTH 0 0
BBX 7 2 0 4
BITMAP
FE
06
ENDCHAR
STARTCHAR uni00AD
ENCODING 173
SWIDTH 1000 0
DWIDTH 0 0
BBX 7 1 0 3
BITMAP
FE
ENDCHAR
STARTCHAR registered
ENCODING 174
SWIDTH 1000 0
DWIDTH 0 0
BBX 7 7 0 0
BITMAP
7C
82
BA
B2
AA
82
7C
ENDCHAR
STARTCHAR macron
ENCODING 175
SWIDTH 1000 0
DWIDTH 0 0
BBX 7 1 0 6
BITMAP
FE
ENDCHAR
STARTCHAR degree
ENCODING 176
SWIDTH 1000 0
DWIDTH 0 0
BBX 5 3 1 4
BITMAP
70
D8
70
ENDCHAR
STARTCHAR plusminus
ENCODING 177
SWIDTH 1000 0
DWIDTH 0 0
BBX 5 5 1 1
BITMAP
20
F8
20
00
F8
ENDCHAR
STARTCHAR uni00B2
ENCODING 178
SWIDTH 1000 0
DWIDTH 0 0
BBX 5 5 2 2
BITMAP
70
D8
18
60
F8
ENDCHAR
STARTCHAR uni00B3
ENCODING 179
SWIDTH 1000 0
DWIDTH 0 0
BBX 4 5 3 2
BITMAP
F0
10
70
10
F0
ENDCHAR
STARTCHAR acute
ENCODING 180
SWIDTH 1000 0
DWIDTH 0 0
BBX 3 2 2 5
BITMAP
60
C0
ENDCHAR
STARTCHAR uni00B5
ENCODING 181
SWIDTH 1000 0
DWIDTH 0 0
BBX 7 6 0 -1
BITMAP
CC
CC
CC
CC
76
C0
ENDCHAR
STARTCHAR paragraph
ENCODING 182
SWIDTH 1000 0
DWIDTH 0 0
BBX 7 7 0 0
BITMAP
7E
CA
CA
7E
0A
0A
0A
ENDCHAR
STARTCHAR periodcentered
ENCODING 183
SWIDTH 1000 0
DWIDTH 0 0
BBX 2 1 3 3
BITMAP
C0
ENDCHAR
STARTCHAR cedilla
ENCODING 184
SWIDTH 1000 0
DWIDTH 0 0
BBX 3 2 2 -1
BITMAP
60
C0
ENDCHAR
STARTCHAR uni00B9
ENCODING 185
SWIDTH 1000 0
DWIDTH 0 0
BBX 3 5 4 2
BITMAP
60
E0
60
60
60
ENDCHAR
STARTCHAR ordmasculine
ENCODING 186
SWIDTH 1000 0
DWIDTH 0 0
BBX 5 6 3 1
BITMAP
70
88
88
88
70
F8
ENDCHAR
STARTCHAR guillemotright
ENCODING 187
SWIDTH 1000 0
DWIDTH 0 0
BBX 8 5 0 1
BITMAP
CC
66
33
66
CC
ENDCHAR
STARTCHAR onequarter
ENCODING 188
SWIDTH 1000 0
DWIDTH 0 0
BBX 8 8 0 -1
BITMAP
60
E0
66
6C
33
67
0F
03
ENDCHAR
STARTCHAR onehalf
ENCODING 189
SWIDTH 1000 0
DWIDTH 0 0
BBX 7 8 0 -1
BITMAP
60
E0
66
6C
36
6A
04
0E
ENDCHAR
STARTCHAR threequarters
ENCODING 190
SWIDTH 1000 0
DWIDTH 0 0
BBX 8 8 0 -1
BITMAP
F0
20
96
6C
33
67
0F
03
ENDCHAR
STARTCHAR questiondown
ENCODING 191
SWIDTH 1000 0
DWIDTH 0 0
BBX 6 7 0 0
BITMAP
30
00
30
60
C0
CC
78
ENDCHAR
STARTCHAR Agrave
ENCODING 192
SWIDTH 1000 0
DWIDTH 0 0
BBX 6 7 0 0
BITMAP
18
0C
30
78
CC
FC
CC
ENDCHAR
STARTCHAR Aacute
ENCODING 193
SWIDTH 1000 0
DWIDTH 0 0
BBX 6 7 0 0
BITMAP
60
C0
30
78
CC
FC
CC
ENDCHAR
STARTCHAR Acircumflex
ENCODING 194
SWIDTH 1000 0
DWIDTH 0 0
BBX 6 7 0 0
BITMAP
78
84
30
78
CC
FC
CC
ENDCHAR
STARTCHAR Atilde
ENCODING 195
SWIDTH 1000 0
DWIDTH 0 0
BBX 7 7 0 0
BITMAP
66
98
30
78
CC
FC
CC
ENDCHAR
STARTCHAR Adieresis
ENCODING 196
SWIDTH 1000 0
DWIDTH 0 0
BBX 6 7 0 0
BITMAP
CC
00
30
78
CC
FC
CC
ENDCHAR
STARTCHAR Aring
ENCODING 197
SWIDTH 1000 0
DWIDTH 0 0
BBX 6 7 0 0
BITMAP
30
48
30
78
CC
FC
CC
ENDCHAR
STARTCHAR AE
ENCODING 198
SWIDTH 1000 0
DWIDTH 0 0
BBX 7 7 0 0
BITMAP
3E
78
98
9C
F8
98
9E
ENDCHAR
STARTCHAR Ccedilla
ENCODING 199
SWIDTH 1000 0
DWIDTH 0 0
BBX 7 8 0 -1
BITMAP
3C
66
C0
C0
C0
66
1C
30
ENDCHAR
STARTCHAR Egrave
ENCODING 200
SWIDTH 1000 0
DWIDTH 0 0
BBX 7 7 0 0
BITMAP
30
18
FE
62
78
62
FE
ENDCHAR
STARTCHAR Eacute
ENCODING 201
SWIDTH 1000 0
DWIDTH 0 0
BBX 7 7 0 0
BITMAP
18
30
FE
62
78
62
FE
ENDCHAR
STARTCHAR Ecircumflex
ENCODING 202
SWIDTH 1000 0
DWIDTH 0 0
BBX 7 7 0 0
BITMAP
38
44
FE
62
78
62
FE
ENDCHAR
STARTCHAR Edieresis
ENCODING 203
SWIDTH 1000 0
DWIDTH 0 0
BBX 7 7 0 0
BITMAP
66
00
FE
62
78
62
FE
ENDCHAR
STARTCHAR Igrave
ENCODING 204
SWIDTH 1000 0
DWIDTH 0 0
BBX 4 7 1 0
BITMAP
C0
60
F0
60
60
60
F0
ENDCHAR
STARTCHAR Iacute
ENCODING 205
SWIDTH 1000 0
DWIDTH 0 0
BBX 4 7 1 0
BITMAP
30
60
F0
60
60
60
F0
ENDCHAR
STARTCHAR Icircumflex
ENCODING 206
SWIDTH 1000 0
DWIDTH 0 0
BBX 6 7 0 0
BITMAP
78
84
78
30
30
30
78
ENDCHAR
STARTCHAR Idieresis
ENCODING 207
SWIDTH 1000 0
DWIDTH 0 0
BBX 6 7 0 0
BITMAP
CC
00
78
30
30
30
78
ENDCHAR
STARTCHAR Eth
ENCODING 208
SWIDTH 1000 0
DWIDTH 0 0
BBX 7 7 0 0
BITMAP
78
6C
66
F6
66
6C
78
ENDCHAR
STARTCHAR Ntilde
ENCODING 209
SWIDTH 1000 0
DWIDTH 0 0
BBX 7 7 0 0
BITMAP
66
98
E6
F6
DE
CE
C6
ENDCHAR
STARTCHAR Ograve
ENCODING 210
SWIDTH 1000 0
DWIDTH 0 0
BBX 7 7 0 0
BITMAP
30
18
7C
C6
C6
C6
7C
ENDCHAR
STARTCHAR Oacute
ENCODING 211
SWIDTH 1000 0
DWIDTH 0 0
BBX 7 7 0 0
BITMAP
18
30
7C
C6
C6
C6
7C
ENDCHAR
STARTCHAR Ocircumflex
ENCODING 212
SWIDTH 1000 0
DWIDTH 0 0
BBX 7 7 0 0
BITMAP
38
44
7C
C6
C6
C6
7C
ENDCHAR
STARTCHAR Otilde
ENCODING 213
SWIDTH 1000 0
DWIDTH 0 0
BBX 7 7 0 0
BITMAP
66
98
7C
C6
C6
C6
7C
ENDCHAR
STARTCHAR Odieresis
ENCODING 214
SWIDTH 1000 0
DWIDTH 0 0
BBX 7 7 0 0
BITMAP
C6
00
7C
C6
C6
C6
7C
ENDCHAR
STARTCHAR multiply
ENCODING 215
SWIDTH 1000 0
DWIDTH 0 0
BBX 7 6 0 0
BITMAP
C6
6C
38
38
6C
C6
ENDCHAR
STARTCHAR Oslash
ENCODING 216
SWIDTH 1000 0
DWIDTH 0 0
BBX 7 8 0 -1
BITMAP
06
7C
CE
9A
B2
E6
78
C0
ENDCHAR
STARTCHAR Ugrave
ENCODING 217
SWIDTH 1000 0
DWIDTH 0 0
BBX 6 7 0 0
BITMAP
60
30
CC
CC
CC
CC
FC
ENDCHAR
STARTCHAR Uacute
ENCODING 218
SWIDTH 1000 0
DWIDTH 0 0
BBX 6 7 0 0
BITMAP
18
30
CC
CC
CC
CC
FC
ENDCHAR
STARTCHAR Ucircumflex
ENCODING 219
SWIDTH 1000 0
DWIDTH 0 0
BBX 6 7 0 0
BITMAP
78
84
CC
CC
CC
CC
FC
ENDCHAR
STARTCHAR Udieresis
ENCODING 220
SWIDTH 1000 0
DWIDTH 0 0
BBX 6 7 0 0
BITMAP
CC
00
CC
CC
CC
CC
FC
ENDCHAR
STARTCHAR Yacute
ENCODING 221
SWIDTH 1000 0
DWIDTH 0 0
BBX 6 7 0 0
BITMAP
18
30
CC
CC
78
30
78
ENDCHAR
STARTCHAR Thorn
ENCODING 222
SWIDTH 1000 0
DWIDTH 0 0
BBX 5 7 1 0
BITMAP
C0
F0
D8
F0
C0
C0
C0
ENDCHAR
STARTCHAR germandbls
ENCODING 223
SWIDTH 1000 0
DWIDTH 0 0
BBX 7 8 0 -1
BITMAP
78
CC
C4
DC
C6
C6
DC
C0
ENDCHAR
STARTCHAR agrave
ENCODING 224
SWIDTH 1000 0
DWIDTH 0 0
BBX 7 7 0 0
BITMAP
30
18
78
0C
7C
CC
76
ENDCHAR
STARTCHAR aacute
ENCODING 225
SWIDTH 1000 0
DWIDTH 0 0
BBX 7 7 0 0
BITMAP
18
30
78
0C
7C
CC
76
ENDCHAR
STARTCHAR acircumflex
ENCODING 226
SWIDTH 1000 0
DWIDTH 0 0
BBX 7 7 0 0
BITMAP
78
84
78
0C
7C
CC
76
ENDCHAR
STARTCHAR atilde
ENCODING 227
SWIDTH 1000 0
DWIDTH 0 0
BBX 7 7 0 0
BITMAP
66
98
78
0C
7C
CC
76
ENDCHAR
STARTCHAR adieresis
ENCODING 228
SWIDTH 1000 0
DWIDTH 0 0
BBX 7 7 0 0
BITMAP
CC
00
78
0C
7C
CC
76
ENDCHAR
STARTCHAR aring
ENCODING 229
SWIDTH 1000 0
DWIDTH 0 0
BBX 7 7 0 0
BITMAP
30
48
38
0C
7C
CC
76
ENDCHAR
STARTCHAR ae
ENCODING 230
SWIDTH 1000 0
DWIDTH 0 0
BBX 7 5 0 0
BITMAP
EC
32
7E
B0
6E
ENDCHAR
STARTCHAR ccedilla
ENCODING 231
SWIDTH 1000 0
DWIDTH 0 0
BBX 7 6 0 -1
BITMAP
3C
66
C0
66
1C
30
ENDCHAR
STARTCHAR egrave
ENCODING 232
SWIDTH 1000 0
DWIDTH 0 0
BBX 6 7 0 0
BITMAP
30
18
78
CC
FC
C0
78
ENDCHAR
STARTCHAR eacute
ENCODING 233
SWIDTH 1000 0
DWIDTH 0 0
BBX 6 7 0 0
BITMAP
18
30
78
CC
FC
C0
78
ENDCHAR
STARTCHAR ecircumflex
ENCODING 234
SWIDTH 1000 0
DWIDTH 0 0
BBX 6 7 0 0
BITMAP
78
84
78
CC
FC
C0
78
ENDCHAR
STARTCHAR edieresis
ENCODING 235
SWIDTH 1000 0
DWIDTH 0 0
BBX 6 7 0 0
BITMAP
CC
00
78
CC
FC
C0
78
ENDCHAR
STARTCHAR igrave
ENCODING 236
SWIDTH 1000 0
DWIDTH 0 0
BBX 4 7 1 0
BITMAP
C0
60
00
E0
60
60
F0
ENDCHAR
STARTCHAR iacute
ENCODING 237
SWIDTH 1000 0
DWIDTH 0 0
BBX 4 7 1 0
BITMAP
30
60
00
E0
60
60
F0
ENDCHAR
STARTCHAR icircumflex
ENCODING 238
SWIDTH 1000 0
DWIDTH 0 0
BBX 5 7 0 0
BITMAP
70
88
00
70
30
30
78
ENDCHAR
STARTCHAR idieresis
ENCODING 239
SWIDTH 1000 0
DWIDTH 0 0
BBX 6 7 0 0
BITMAP
CC
00
00
70
30
30
78
ENDCHAR
STARTCHAR eth
ENCODING 240
SWIDTH 1000 0
DWIDTH 0 0
BBX 6 7 0 0
BITMAP
6C
38
6C
0C
6C
CC
78
ENDCHAR
STARTCHAR ntilde
ENCODING 241
SWIDTH 1000 0
DWIDTH 0 0
BBX 7 7 0 0
BITMAP
66
98
F8
CC
CC
CC
CC
ENDCHAR
STARTCHAR ograve
ENCODING 242
SWIDTH 1000 0
DWIDTH 0 0
BBX 7 7 0 0
BITMAP
60
30
00
7C
C6
C6
7C
ENDCHAR
STARTCHAR oacute
ENCODING 243
SWIDTH 1000 0
DWIDTH 0 0
BBX 7 7 0 0
BITMAP
18
30
00
7C
C6
C6
7C
ENDCHAR
STARTCHAR ocircumflex
ENCODING 244
SWIDTH 1000 0
DWIDTH 0 0
BBX 7 7 0 0
BITMAP
38
44
00
7C
C6
C6
7C
ENDCHAR
STARTCHAR otilde
ENCODING 245
SWIDTH 1000 0
DWIDTH 0 0
BBX 7 7 0 0
BITMAP
66
98
00
7C
C6
C6
7C
ENDCHAR
STARTCHAR odieresis
ENCODING 246
SWIDTH 1000 0
DWIDTH 0 0
BBX 7 7 0 0
BITMAP
C6
00
00
7C
C6
C6
7C
ENDCHAR
STARTCHAR oslash
ENCODING 248
SWIDTH 1000 0
DWIDTH 0 0
BBX 7 6 0 -1
BITMAP
06
7C
DE
F6
7C
C0
ENDCHAR
STARTCHAR ugrave
ENCODING 249
SWIDTH 1000 0
DWIDTH 0 0
BBX 7 7 0 0
BITMAP
60
30
00
CC
CC
CC
76
ENDCHAR
STARTCHAR uacute
ENCODING 250
SWIDTH 1000 0
DWIDTH 0 0
BBX 7 7 0 0
BITMAP
18
30
00
CC
CC
CC
76
ENDCHAR
STARTCHAR ucircumflex
ENCODING 251
SWIDTH 1000 0
DWIDTH 0 0
BBX 7 7 0 0
BITMAP
30
48
00
CC
CC
CC
76
ENDCHAR
STARTCHAR udieresis
ENCODING 252
SWIDTH 1000 0
DWIDTH 0 0
BBX 7 7 0 0
BITMAP
CC
00
00
CC
CC
CC
76
ENDCHAR
STARTCHAR yacute
ENCODING 253
SWIDTH 1000 0
DWIDTH 0 0
BBX 6 8 0 -1
BITMAP
18
30
CC
CC
CC
7C
0C
F8
ENDCHAR
STARTCHAR thorn
ENCODING 254
SWIDTH 1000 0
DWIDTH 0 0
BBX 7 7 0 0
BITMAP
E0
78
6C
66
6C
78
E0
ENDCHAR
STARTCHAR ydieresis
ENCODING 255
SWIDTH 1000 0
DWIDTH 0 0
BBX 6 8 0 -1
BITMAP
CC
00
CC
CC
CC
7C
0C
F8
ENDCHAR
STARTCHAR afii10023
ENCODING 1025
SWIDTH 1000 0
DWIDTH 8 0
BBX 7 7 0 0
BITMAP
6C
00
FE
60
78
60
FE
ENDCHAR
STARTCHAR afii10051
ENCODING 1026
SWIDTH 1000 0
DWIDTH 8 0
BBX 7 8 0 -1
BITMAP
F0
60
7C
66
66
66
66
0C
ENDCHAR
STARTCHAR afii10052
ENCODING 1027
SWIDTH 1000 0
DWIDTH 8 0
BBX 6 7 1 0
BITMAP
18
30
FC
64
60
60
F0
ENDCHAR
STARTCHAR afii10053
ENCODING 1028
SWIDTH 1000 0
DWIDTH 8 0
BBX 7 7 0 0
BITMAP
3C
66
C0
F8
C0
66
3C
ENDCHAR
STARTCHAR afii10054
ENCODING 1029
SWIDTH 1000 0
DWIDTH 8 0
BBX 6 7 0 0
BITMAP
78
CC
E0
70
1C
CC
78
ENDCHAR
STARTCHAR afii10055
ENCODING 1030
SWIDTH 1000 0
DWIDTH 8 0
BBX 4 7 1 0
BITMAP
F0
60
60
60
60
60
F0
ENDCHAR
STARTCHAR afii10056
ENCODING 1031
SWIDTH 1000 0
DWIDTH 8 0
BBX 6 7 0 0
BITMAP
CC
00
78
30
30
30
78
ENDCHAR
STARTCHAR afii10057
ENCODING 1032
SWIDTH 1000 0
DWIDTH 8 0
BBX 7 7 0 0
BITMAP
1E
0C
0C
0C
CC
CC
78
ENDCHAR
STARTCHAR afii10058
ENCODING 1033
SWIDTH 1000 0
DWIDTH 8 0
BBX 7 7 0 0
BITMAP
30
50
DC
D6
D6
D6
DC
ENDCHAR
STARTCHAR afii10059
ENCODING 1034
SWIDTH 1000 0
DWIDTH 8 0
BBX 7 7 0 0
BITMAP
D8
D8
D8
FC
DA
DA
DC
ENDCHAR
STARTCHAR afii10060
ENCODING 1035
SWIDTH 1000 0
DWIDTH 8 0
BBX 7 7 0 0
BITMAP
F0
60
7C
66
66
66
66
ENDCHAR
STARTCHAR afii10061
ENCODING 1036
SWIDTH 1000 0
DWIDTH 8 0
BBX 7 7 0 0
BITMAP
0C
18
E6
6C
78
6C
E6
ENDCHAR
STARTCHAR afii10062
ENCODING 1038
SWIDTH 1000 0
DWIDTH 8 0
BBX 6 7 1 0
BITMAP
CC
78
00
CC
7C
0C
F8
ENDCHAR
STARTCHAR afii10145
ENCODING 1039
SWIDTH 1000 0
DWIDTH 8 0
BBX 6 6 1 -1
BITMAP
CC
CC
CC
CC
FC
30
ENDCHAR
STARTCHAR afii10017
ENCODING 1040
SWIDTH 1000 0
DWIDTH 8 0
BBX 6 7 0 0
BITMAP
30
78
CC
CC
FC
CC
CC
ENDCHAR
STARTCHAR afii10018
ENCODING 1041
SWIDTH 1000 0
DWIDTH 8 0
BBX 7 7 0 0
BITMAP
FE
62
60
7C
66
66
FC
ENDCHAR
STARTCHAR afii10019
ENCODING 1042
SWIDTH 1000 0
DWIDTH 8 0
BBX 7 7 0 0
BITMAP
FC
66
66
7C
66
66
FC
ENDCHAR
STARTCHAR afii10020
ENCODING 1043
SWIDTH 1000 0
DWIDTH 8 0
BBX 7 7 0 0
BITMAP
FE
62
60
60
60
60
F0
ENDCHAR
STARTCHAR afii10021
ENCODING 1044
SWIDTH 1000 0
DWIDTH 8 0
BBX 7 8 0 -1
BITMAP
3C
6C
6C
6C
6C
6C
FE
C6
ENDCHAR
STARTCHAR afii10022
ENCODING 1045
SWIDTH 1000 0
DWIDTH 8 0
BBX 7 7 0 0
BITMAP
FE
62
60
78
60
62
FE
ENDCHAR
STARTCHAR afii10024
ENCODING 1046
SWIDTH 1000 0
DWIDTH 8 0
BBX 7 7 0 0
BITMAP
D6
D6
D6
7C
D6
D6
D6
ENDCHAR
STARTCHAR afii10025
ENCODING 1047
SWIDTH 1000 0
DWIDTH 8 0
BBX 7 7 0 0
BITMAP
7C
C6
06
1C
06
C6
7C
ENDCHAR
STARTCHAR afii10026
ENCODING 1048
SWIDTH 1000 0
DWIDTH 8 0
BBX 8 7 0 0
BITMAP
E3
66
6E
7E
76
66
C7
ENDCHAR
STARTCHAR afii10027
ENCODING 1049
SWIDTH 1000 0
DWIDTH 8 0
BBX 8 7 0 0
BITMAP
7E
00
E7
6E
7E
76
E7
ENDCHAR
STARTCHAR afii10028
ENCODING 1050
SWIDTH 1000 0
DWIDTH 8 0
BBX 7 7 0 0
BITMAP
E6
66
6C
78
6C
66
E6
ENDCHAR
STARTCHAR afii10029
ENCODING 1051
SWIDTH 1000 0
DWIDTH 8 0
BBX 7 7 0 0
BITMAP
3E
66
66
66
66
66
C6
ENDCHAR
STARTCHAR afii10030
ENCODING 1052
SWIDTH 1000 0
DWIDTH 8 0
BBX 7 7 0 0
BITMAP
C6
EE
FE
FE
D6
C6
C6
ENDCHAR
STARTCHAR afii10031
ENCODING 1053
SWIDTH 1000 0
DWIDTH 8 0
BBX 6 7 0 0
BITMAP
CC
CC
CC
FC
CC
CC
CC
ENDCHAR
STARTCHAR afii10032
ENCODING 1054
SWIDTH 1000 0
DWIDTH 8 0
BBX 7 7 0 0
BITMAP
38
6C
C6
C6
C6
6C
38
ENDCHAR
STARTCHAR afii10033
ENCODING 1055
SWIDTH 1000 0
DWIDTH 8 0
BBX 6 7 0 0
BITMAP
FC
CC
CC
CC
CC
CC
CC
ENDCHAR
STARTCHAR afii10034
ENCODING 1056
SWIDTH 1000 0
DWIDTH 8 0
BBX 7 7 0 0
BITMAP
FC
66
66
7C
60
60
F0
ENDCHAR
STARTCHAR afii10035
ENCODING 1057
SWIDTH 1000 0
DWIDTH 8 0
BBX 7 7 0 0
BITMAP
3C
66
C0
C0
C0
66
3C
ENDCHAR
STARTCHAR afii10036
ENCODING 1058
SWIDTH 1000 0
DWIDTH 8 0
BBX 6 7 0 0
BITMAP
FC
B4
30
30
30
30
78
ENDCHAR
STARTCHAR afii10037
ENCODING 1059
SWIDTH 1000 0
DWIDTH 8 0
BBX 7 7 0 0
BITMAP
C6
C6
C6
7E
06
C6
7C
ENDCHAR
STARTCHAR afii10038
ENCODING 1060
SWIDTH 1000 0
DWIDTH 8 0
BBX 7 7 0 0
BITMAP
7C
D6
D6
D6
7C
10
38
ENDCHAR
STARTCHAR afii10039
ENCODING 1061
SWIDTH 1000 0
DWIDTH 8 0
BBX 7 7 0 0
BITMAP
C6
C6
6C
38
6C
C6
C6
ENDCHAR
STARTCHAR afii10040
ENCODING 1062
SWIDTH 1000 0
DWIDTH 8 0
BBX 7 8 0 -1
BITMAP
CC
CC
CC
CC
CC
CC
FE
06
ENDCHAR
STARTCHAR afii10041
ENCODING 1063
SWIDTH 1000 0
DWIDTH 8 0
BBX 6 7 1 0
BITMAP
CC
CC
CC
CC
7C
0C
0C
ENDCHAR
STARTCHAR afii10042
ENCODING 1064
SWIDTH 1000 0
DWIDTH 8 0
BBX 7 7 0 0
BITMAP
D6
D6
D6
D6
D6
D6
FE
ENDCHAR
STARTCHAR afii10043
ENCODING 1065
SWIDTH 1000 0
DWIDTH 8 0
BBX 8 8 0 -1
BITMAP
D6
D6
D6
D6
D6
D6
FF
03
ENDCHAR
STARTCHAR afii10044
ENCODING 1066
SWIDTH 1000 0
DWIDTH 8 0
BBX 7 7 0 0
BITMAP
F0
30
3C
36
36
36
3C
ENDCHAR
STARTCHAR afii10045
ENCODING 1067
SWIDTH 1000 0
DWIDTH 8 0
BBX 7 7 0 0
BITMAP
C6
C6
F6
DE
DE
DE
F6
ENDCHAR
STARTCHAR afii10046
ENCODING 1068
SWIDTH 1000 0
DWIDTH 8 0
BBX 7 7 0 0
BITMAP
F0
60
7C
66
66
66
FC
ENDCHAR
STARTCHAR afii10047
ENCODING 1069
SWIDTH 1000 0
DWIDTH 8 0
BBX 7 7 0 0
BITMAP
78
CC
06
3E
06
CC
78
ENDCHAR
STARTCHAR afii10048
ENCODING 1070
SWIDTH 1000 0
DWIDTH 8 0
BBX 7 7 0 0
BITMAP
CC
D6
D6
F6
D6
D6
CC
ENDCHAR
STARTCHAR afii10049
ENCODING 1071
SWIDTH 1000 0
DWIDTH 8 0
BBX 7 7 0 0
BITMAP
7E
CC
CC
7C
6C
CC
CE
ENDCHAR
STARTCHAR afii10065
ENCODING 1072
SWIDTH 1000 0
DWIDTH 8 0
BBX 6 5 1 0
BITMAP
78
0C
7C
CC
7C
ENDCHAR
STARTCHAR afii10066
ENCODING 1073
SWIDTH 1000 0
DWIDTH 8 0
BBX 6 5 1 0
BITMAP
F8
C0
F8
CC
F8
ENDCHAR
STARTCHAR afii10067
ENCODING 1074
SWIDTH 1000 0
DWIDTH 8 0
BBX 6 5 1 0
BITMAP
F8
CC
F8
CC
F8
ENDCHAR
STARTCHAR afii10068
ENCODING 1075
SWIDTH 1000 0
DWIDTH 8 0
BBX 5 5 1 0
BITMAP
F8
C0
C0
C0
C0
ENDCHAR
STARTCHAR afii10069
ENCODING 1076
SWIDTH 1000 0
DWIDTH 8 0
BBX 7 6 0 -1
BITMAP
3C
6C
6C
6C
FE
C6
ENDCHAR
STARTCHAR afii10070
ENCODING 1077
SWIDTH 1000 0
DWIDTH 8 0
BBX 6 5 1 0
BITMAP
78
CC
FC
C0
78
ENDCHAR
STARTCHAR afii10072
ENCODING 1078
SWIDTH 1000 0
DWIDTH 8 0
BBX 7 5 0 0
BITMAP
D6
D6
7C
D6
D6
ENDCHAR
STARTCHAR afii10073
ENCODING 1079
SWIDTH 1000 0
DWIDTH 8 0
BBX 6 5 1 0
BITMAP
F8
0C
78
0C
F8
ENDCHAR
STARTCHAR afii10074
ENCODING 1080
SWIDTH 1000 0
DWIDTH 8 0
BBX 6 5 1 0
BITMAP
CC
DC
FC
EC
CC
ENDCHAR
STARTCHAR afii10075
ENCODING 1081
SWIDTH 1000 0
DWIDTH 8 0
BBX 6 7 1 0
BITMAP
78
00
CC
DC
FC
EC
CC
ENDCHAR
STARTCHAR afii10076
ENCODING 1082
SWIDTH 1000 0
DWIDTH 8 0
BBX 6 5 1 0
BITMAP
CC
D8
F0
D8
CC
ENDCHAR
STARTCHAR afii10077
ENCODING 1083
SWIDTH 1000 0
DWIDTH 8 0
BBX 7 5 0 0
BITMAP
3E
66
66
66
C6
ENDCHAR
STARTCHAR afii10078
ENCODING 1084
SWIDTH 1000 0
DWIDTH 8 0
BBX 7 5 0 0
BITMAP
C6
EE
FE
D6
C6
ENDCHAR
STARTCHAR afii10079
ENCODING 1085
SWIDTH 1000 0
DWIDTH 8 0
BBX 6 5 1 0
BITMAP
CC
CC
FC
CC
CC
ENDCHAR
STARTCHAR afii10080
ENCODING 1086
SWIDTH 1000 0
DWIDTH 8 0
BBX 6 5 1 0
BITMAP
78
CC
CC
CC
78
ENDCHAR
STARTCHAR afii10081
ENCODING 1087
SWIDTH 1000 0
DWIDTH 8 0
BBX 6 5 1 0
BITMAP
FC
CC
CC
CC
CC
ENDCHAR
STARTCHAR afii10082
ENCODING 1088
SWIDTH 1000 0
DWIDTH 8 0
BBX 6 6 1 -1
BITMAP
F8
CC
CC
CC
F8
C0
ENDCHAR
STARTCHAR afii10083
ENCODING 1089
SWIDTH 1000 0
DWIDTH 8 0
BBX 6 5 1 0
BITMAP
78
CC
C0
CC
78
ENDCHAR
STARTCHAR afii10084
ENCODING 1090
SWIDTH 1000 0
DWIDTH 8 0
BBX 6 5 1 0
BITMAP
FC
30
30
30
30
ENDCHAR
STARTCHAR afii10085
ENCODING 1091
SWIDTH 1000 0
DWIDTH 8 0
BBX 6 6 1 -1
BITMAP
CC
CC
CC
7C
0C
F8
ENDCHAR
STARTCHAR afii10086
ENCODING 1092
SWIDTH 1000 0
DWIDTH 8 0
BBX 7 6 0 -1
BITMAP
7C
D6
D6
D6
7C
10
ENDCHAR
STARTCHAR afii10087
ENCODING 1093
SWIDTH 1000 0
DWIDTH 8 0
BBX 6 5 1 0
BITMAP
CC
78
30
78
CC
ENDCHAR
STARTCHAR afii10088
ENCODING 1094
SWIDTH 1000 0
DWIDTH 8 0
BBX 7 6 1 -1
BITMAP
CC
CC
CC
CC
FE
06
ENDCHAR
STARTCHAR afii10089
ENCODING 1095
SWIDTH 1000 0
DWIDTH 8 0
BBX 6 5 1 0
BITMAP
CC
CC
CC
7C
0C
ENDCHAR
STARTCHAR afii10090
ENCODING 1096
SWIDTH 1000 0
DWIDTH 8 0
BBX 7 5 0 0
BITMAP
D6
D6
D6
D6
FE
ENDCHAR
STARTCHAR afii10091
ENCODING 1097
SWIDTH 1000 0
DWIDTH 8 0
BBX 8 6 0 -1
BITMAP
D6
D6
D6
D6
FF
03
ENDCHAR
STARTCHAR afii10092
ENCODING 1098
SWIDTH 1000 0
DWIDTH 8 0
BBX 7 5 0 0
BITMAP
E0
7C
66
66
7C
ENDCHAR
STARTCHAR afii10093
ENCODING 1099
SWIDTH 1000 0
DWIDTH 8 0
BBX 7 5 0 0
BITMAP
C6
F6
DE
DE
F6
ENDCHAR
STARTCHAR afii10094
ENCODING 1100
SWIDTH 1000 0
DWIDTH 8 0
BBX 6 5 1 0
BITMAP
C0
F8
CC
CC
F8
ENDCHAR
STARTCHAR afii10095
ENCODING 1101
SWIDTH 1000 0
DWIDTH 8 0
BBX 6 5 1 0
BITMAP
F8
0C
7C
0C
F8
ENDCHAR
STARTCHAR afii10096
ENCODING 1102
SWIDTH 1000 0
DWIDTH 8 0
BBX 7 5 0 0
BITMAP
CC
D6
F6
D6
CC
ENDCHAR
STARTCHAR afii10097
ENCODING 1103
SWIDTH 1000 0
DWIDTH 8 0
BBX 6 5 1 0
BITMAP
7C
CC
7C
6C
CC
ENDCHAR
STARTCHAR afii10071
ENCODING 1105
SWIDTH 1000 0
DWIDTH 8 0
BBX 6 7 1 0
BITMAP
CC
00
78
CC
FC
C0
78
ENDCHAR
STARTCHAR afii10099
ENCODING 1106
SWIDTH 1000 0
DWIDTH 8 0
BBX 7 8 0 -1
BITMAP
60
F0
60
7C
66
66
66
0C
ENDCHAR
STARTCHAR afii10100
ENCODING 1107
SWIDTH 1000 0
DWIDTH 8 0
BBX 5 7 2 0
BITMAP
30
60
00
F8
C0
C0
C0
ENDCHAR
STARTCHAR afii10101
ENCODING 1108
SWIDTH 1000 0
DWIDTH 8 0
BBX 6 5 1 0
BITMAP
7C
C0
F8
C0
7C
ENDCHAR
STARTCHAR afii10102
ENCODING 1109
SWIDTH 1000 0
DWIDTH 8 0
BBX 6 5 0 0
BITMAP
7C
C0
78
0C
F8
ENDCHAR
STARTCHAR afii10103
ENCODING 1110
SWIDTH 1000 0
DWIDTH 8 0
BBX 4 7 1 0
BITMAP
60
00
E0
60
60
60
F0
ENDCHAR
STARTCHAR afii10104
ENCODING 1111
SWIDTH 1000 0
DWIDTH 8 0
BBX 6 7 0 0
BITMAP
CC
00
70
30
30
30
78
ENDCHAR
STARTCHAR afii10105
ENCODING 1112
SWIDTH 1000 0
DWIDTH 8 0
BBX 6 8 0 -1
BITMAP
0C
00
0C
0C
0C
CC
CC
78
ENDCHAR
STARTCHAR afii10106
ENCODING 1113
SWIDTH 1000 0
DWIDTH 8 0
BBX 7 5 0 0
BITMAP
30
50
DC
D6
DC
ENDCHAR
STARTCHAR afii10107
ENCODING 1114
SWIDTH 1000 0
DWIDTH 8 0
BBX 7 5 0 0
BITMAP
D8
D8
FC
DA
DC
ENDCHAR
STARTCHAR afii10108
ENCODING 1115
SWIDTH 1000 0
DWIDTH 8 0
BBX 7 7 0 0
BITMAP
60
F0
60
7C
66
66
66
ENDCHAR
STARTCHAR afii10109
ENCODING 1116
SWIDTH 1000 0
DWIDTH 8 0
BBX 6 7 1 0
BITMAP
18
30
CC
D8
F0
D8
CC
ENDCHAR
STARTCHAR afii10110
ENCODING 1118
SWIDTH 1000 0
DWIDTH 8 0
BBX 6 8 1 -1
BITMAP
CC
78
00
CC
CC
7C
0C
F8
ENDCHAR
STARTCHAR afii10193
ENCODING 1119
SWIDTH 1000 0
DWIDTH 8 0
BBX 6 6 1 -1
BITMAP
CC
CC
CC
CC
FC
30
ENDCHAR
STARTCHAR afii61352
ENCODING 8470
SWIDTH 1000 0
DWIDTH 8 0
BBX 8 7 0 0
BITMAP
98
D8
F8
F8
F8
DB
CB
ENDCHAR
ENDFONT
